<svg width="49" height="48" viewBox="0 0 49 48" fill="none" xmlns="http://www.w3.org/2000/svg">
<g clip-path="url(#clip0_93_74)">
<path d="M24.5015 9.60077C18.1014 9.60077 14.1027 12.7995 12.5015 19.1996C14.9007 16.0005 17.7016 14.8009 20.9007 15.6008C22.7274 16.056 24.0327 17.3805 25.4784 18.8483C27.8311 21.2359 30.5544 24 36.5015 24C42.9012 24 46.9002 20.8009 48.5015 14.3993C46.1019 17.6003 43.3014 18.7999 40.1019 18C38.2756 17.5444 36.9717 16.2203 35.5242 14.7525C33.173 12.3649 30.4505 9.60077 24.5015 9.60077ZM12.5015 24C6.10175 24 2.10275 27.1991 0.501495 33.6008C2.90075 30.3998 5.70125 29.2001 8.90075 30C10.7274 30.4556 12.0327 31.7798 13.4784 33.2475C15.8311 35.6351 18.5544 38.3993 24.5015 38.3993C30.9012 38.3993 34.9002 35.2005 36.5015 28.8004C34.1019 31.9995 31.3014 33.1991 28.1019 32.3993C26.2756 31.944 24.9717 30.6195 23.5242 29.1518C21.173 26.7641 18.4505 24 12.5015 24Z" fill="white"/>
</g>
<defs>
<clipPath id="clip0_93_74">
<rect width="48" height="48" fill="white" transform="translate(0.5)"/>
</clipPath>
</defs>
</svg>
